<svg version="1.2" baseProfile="tiny-ps" xmlns="http://www.w3.org/2000/svg" viewBox="0 0 1500 1242" width="1500" height="1242">
	<title>financial-charts-screen-publicdomainvectors</title>
	<style>
		tspan { white-space:pre }
		.shp0 { fill: #497bad } 
		.shp1 { fill: #c06c84 } 
		.shp2 { fill: #f7e1e7 } 
		.shp3 { fill: #ffffff } 
		.shp4 { fill: #e69fb3 } 
		.shp5 { fill: #6b5c7b } 
		.shp6 { fill: #f8b195 } 
		.shp7 { fill: #f2727f } 
		.shp8 { fill: #d6899f } 
		.shp9 { fill: #85334a } 
		.shp10 { fill: #b0a3bf } 
		.shp11 { fill: #4e405c } 
		.shp12 { fill: #ed9876 } 
		.shp13 { fill: #33283d } 
	</style>
	<g id="publicdomainvectors.org">
		<g id="&lt;Group&gt;">
			<g id="&lt;Group&gt;">
				<g id="&lt;Group&gt;">
					<path id="&lt;Compound Path&gt;" fill-rule="evenodd" class="shp0" d="M467.7 1415.1L467.7 1415.84C468.81 1414.42 469.97 1413.35 471.17 1412.68C472.38 1412.01 473.75 1411.66 475.27 1411.66C477.09 1411.66 478.77 1412.16 480.31 1413.14C481.84 1414.13 483.06 1415.56 483.95 1417.46C484.84 1419.35 485.28 1421.58 485.28 1424.17C485.28 1426.07 485.04 1427.84 484.52 1429.42C484.01 1431.02 483.3 1432.37 482.4 1433.44C481.5 1434.52 480.43 1435.36 479.22 1435.94C477.99 1436.53 476.67 1436.82 475.27 1436.82C473.57 1436.82 472.14 1436.46 470.99 1435.75C469.83 1435.04 468.74 1434 467.7 1432.62L467.7 1441.92C467.7 1444.64 466.75 1446 464.85 1446C463.73 1446 462.99 1445.65 462.64 1444.95C462.27 1444.25 462.09 1443.22 462.09 1441.88L462.09 1415.14C462.09 1413.96 462.33 1413.08 462.83 1412.5C463.33 1411.92 464 1411.62 464.85 1411.62C465.69 1411.62 466.38 1411.92 466.9 1412.52C467.43 1413.13 467.7 1413.98 467.7 1415.1ZM479.33 1424.12C479.33 1422.49 479.1 1421.07 478.61 1419.91C478.14 1418.74 477.48 1417.83 476.62 1417.2C475.77 1416.57 474.84 1416.26 473.81 1416.26C472.17 1416.26 470.79 1416.95 469.66 1418.28C468.54 1419.64 467.98 1421.61 467.98 1424.23C467.98 1426.7 468.54 1428.62 469.65 1429.97C470.77 1431.35 472.16 1432.04 473.81 1432.04C474.79 1432.04 475.71 1431.74 476.55 1431.13C477.38 1430.53 478.06 1429.64 478.57 1428.46C479.08 1427.25 479.33 1425.81 479.33 1424.12Z" />
					<path id="&lt;Compound Path&gt;" class="shp0" d="M505.48 1433.31L505.48 1432.53C504.76 1433.46 504.02 1434.25 503.23 1434.88C502.45 1435.53 501.59 1435.99 500.67 1436.3C499.73 1436.61 498.68 1436.77 497.49 1436.77C496.06 1436.77 494.78 1436.45 493.63 1435.84C492.49 1435.22 491.61 1434.36 491 1433.28C490.25 1431.96 489.89 1430.07 489.89 1427.61L489.89 1415.33C489.89 1414.1 490.15 1413.17 490.69 1412.56C491.23 1411.95 491.93 1411.64 492.82 1411.64C493.72 1411.64 494.44 1411.95 494.99 1412.57C495.54 1413.19 495.82 1414.12 495.82 1415.33L495.82 1425.26C495.82 1426.68 495.93 1427.89 496.16 1428.86C496.4 1429.84 496.82 1430.6 497.42 1431.16C498.01 1431.71 498.83 1431.98 499.86 1431.98C500.87 1431.98 501.81 1431.67 502.69 1431.05C503.58 1430.44 504.22 1429.63 504.63 1428.63C504.96 1427.75 505.12 1425.83 505.12 1422.87L505.12 1415.33C505.12 1414.12 505.4 1413.19 505.96 1412.57C506.5 1411.95 507.21 1411.64 508.1 1411.64C508.99 1411.64 509.69 1411.95 510.23 1412.56C510.76 1413.17 511.02 1414.1 511.02 1415.33L511.02 1433.28C511.02 1434.45 510.78 1435.34 510.26 1435.92C509.75 1436.52 509.09 1436.81 508.28 1436.81C507.47 1436.81 506.8 1436.5 506.27 1435.9C505.74 1435.28 505.48 1434.43 505.48 1433.31Z" />
				</g>
				<g id="&lt;Group&gt;">
					<path id="&lt;Compound Path&gt;" fill-rule="evenodd" class="shp0" d="M522.41 1405.96L522.41 1415.43C523.51 1414.2 524.66 1413.29 525.81 1412.63C526.97 1411.99 528.42 1411.66 530.12 1411.66C532.09 1411.66 533.82 1412.16 535.31 1413.13C536.79 1414.12 537.95 1415.52 538.76 1417.37C539.59 1419.23 539.99 1421.42 539.99 1423.96C539.99 1425.84 539.77 1427.56 539.32 1429.14C538.86 1430.7 538.2 1432.05 537.33 1433.21C536.45 1434.35 535.39 1435.23 534.16 1435.88C532.92 1436.5 531.55 1436.82 530.06 1436.82C529.15 1436.82 528.29 1436.7 527.48 1436.48C526.67 1436.25 525.98 1435.95 525.43 1435.57C524.86 1435.22 524.38 1434.82 523.98 1434.44C523.58 1434.04 523.06 1433.46 522.41 1432.67L522.41 1433.28C522.41 1434.45 522.13 1435.32 521.6 1435.92C521.07 1436.52 520.38 1436.82 519.56 1436.82C518.71 1436.82 518.05 1436.52 517.54 1435.92C517.04 1435.31 516.8 1434.44 516.8 1433.28L516.8 1406.23C516.8 1404.98 517.04 1404.03 517.53 1403.39C518.01 1402.74 518.68 1402.42 519.56 1402.42C520.47 1402.42 521.17 1402.73 521.66 1403.35C522.16 1403.95 522.41 1404.82 522.41 1405.96ZM522.69 1424.37C522.69 1426.83 523.23 1428.72 524.3 1430.05C525.39 1431.37 526.8 1432.04 528.56 1432.04C530.06 1432.04 531.33 1431.35 532.42 1430C533.51 1428.65 534.05 1426.72 534.05 1424.19C534.05 1422.54 533.82 1421.14 533.37 1419.96C532.92 1418.78 532.27 1417.87 531.46 1417.23C530.62 1416.59 529.67 1416.26 528.56 1416.26C527.42 1416.26 526.43 1416.59 525.54 1417.23C524.65 1417.87 523.96 1418.8 523.45 1420.02C522.94 1421.23 522.69 1422.67 522.69 1424.37Z" />
				</g>
				<g id="&lt;Group&gt;">
					<path id="&lt;Compound Path&gt;" class="shp0" d="M544.18 1433.04L544.18 1406.19C544.18 1404.94 544.45 1404.01 544.97 1403.37C545.51 1402.74 546.22 1402.42 547.12 1402.42C548.01 1402.42 548.74 1402.73 549.29 1403.36C549.83 1403.99 550.12 1404.94 550.12 1406.19L550.12 1433.04C550.12 1434.3 549.83 1435.25 549.27 1435.88C548.72 1436.5 548 1436.82 547.12 1436.82C546.25 1436.82 545.55 1436.49 545 1435.84C544.46 1435.19 544.18 1434.26 544.18 1433.04Z" />
					<path id="&lt;Compound Path&gt;" class="shp0" d="M559.24 1408.75C558.42 1408.75 557.71 1408.49 557.11 1407.95C556.54 1407.42 556.24 1406.66 556.24 1405.69C556.24 1404.82 556.54 1404.11 557.15 1403.53C557.75 1402.96 558.44 1402.69 559.24 1402.69C560.01 1402.69 560.69 1402.94 561.29 1403.45C561.88 1403.97 562.18 1404.72 562.18 1405.69C562.18 1406.65 561.88 1407.4 561.3 1407.93C560.72 1408.46 560.04 1408.75 559.24 1408.75ZM562.18 1415.16L562.18 1433.04C562.18 1434.29 561.89 1435.23 561.34 1435.87C560.76 1436.49 560.04 1436.82 559.18 1436.82C558.31 1436.82 557.6 1436.49 557.06 1435.84C556.52 1435.19 556.24 1434.26 556.24 1433.04L556.24 1415.33C556.24 1414.12 556.52 1413.19 557.06 1412.57C557.6 1411.95 558.31 1411.64 559.18 1411.64C560.04 1411.64 560.76 1411.95 561.34 1412.57C561.89 1413.19 562.18 1414.05 562.18 1415.16Z" />
					<path id="&lt;Compound Path&gt;" class="shp0" d="M589.56 1429.15C589.56 1429.91 589.35 1430.74 588.91 1431.62C588.46 1432.49 587.79 1433.33 586.88 1434.12C585.98 1434.91 584.83 1435.55 583.46 1436.03C582.08 1436.53 580.53 1436.77 578.81 1436.77C575.14 1436.77 572.28 1435.65 570.22 1433.42C568.17 1431.19 567.13 1428.21 567.13 1424.45C567.13 1421.91 567.6 1419.66 568.54 1417.71C569.48 1415.77 570.85 1414.25 572.63 1413.19C574.41 1412.12 576.55 1411.59 579.02 1411.59C580.56 1411.59 581.97 1411.83 583.25 1412.29C584.53 1412.76 585.62 1413.37 586.51 1414.1C587.4 1414.85 588.08 1415.64 588.56 1416.47C589.03 1417.31 589.26 1418.1 589.26 1418.82C589.26 1419.56 588.99 1420.18 588.47 1420.7C587.93 1421.22 587.3 1421.48 586.55 1421.48C586.05 1421.48 585.64 1421.33 585.31 1421.07C584.99 1420.81 584.62 1420.4 584.21 1419.79C583.49 1418.65 582.73 1417.78 581.94 1417.2C581.15 1416.63 580.15 1416.33 578.94 1416.33C577.18 1416.33 575.76 1417.06 574.7 1418.48C573.62 1419.92 573.09 1421.87 573.09 1424.36C573.09 1425.51 573.23 1426.6 573.51 1427.57C573.78 1428.54 574.18 1429.37 574.7 1430.07C575.22 1430.75 575.84 1431.27 576.58 1431.63C577.32 1431.99 578.14 1432.16 579.02 1432.16C580.21 1432.16 581.23 1431.88 582.08 1431.3C582.92 1430.72 583.67 1429.85 584.33 1428.68C584.69 1427.97 585.08 1427.43 585.5 1427.03C585.92 1426.63 586.44 1426.45 587.05 1426.45C587.77 1426.45 588.37 1426.73 588.85 1427.3C589.32 1427.89 589.56 1428.49 589.56 1429.15Z" />
					<path id="&lt;Compound Path&gt;" fill-rule="evenodd" class="shp0" d="M611 1433.28L611 1432.67C610.21 1433.62 609.42 1434.4 608.64 1434.98C607.87 1435.59 607.03 1436.04 606.12 1436.35C605.22 1436.65 604.23 1436.82 603.16 1436.82C601.74 1436.82 600.42 1436.5 599.21 1435.88C598.01 1435.23 596.96 1434.35 596.08 1433.18C595.19 1432.02 594.52 1430.65 594.06 1429.07C593.6 1427.51 593.38 1425.8 593.38 1423.96C593.38 1420.1 594.29 1417.07 596.1 1414.91C597.91 1412.74 600.29 1411.66 603.25 1411.66C604.95 1411.66 606.4 1411.98 607.57 1412.6C608.74 1413.2 609.89 1414.15 611 1415.43L611 1406.28C611 1405.01 611.24 1404.05 611.73 1403.4C612.22 1402.75 612.9 1402.42 613.8 1402.42C614.7 1402.42 615.39 1402.72 615.88 1403.31C616.36 1403.91 616.62 1404.79 616.62 1405.96L616.62 1433.28C616.62 1434.45 616.35 1435.34 615.83 1435.92C615.3 1436.52 614.64 1436.82 613.8 1436.82C613 1436.82 612.32 1436.51 611.79 1435.9C611.27 1435.29 611 1434.42 611 1433.28ZM599.34 1424.19C599.34 1425.87 599.59 1427.29 600.09 1428.47C600.59 1429.66 601.26 1430.53 602.13 1431.13C603.01 1431.74 603.96 1432.04 604.98 1432.04C606.03 1432.04 606.98 1431.75 607.84 1431.19C608.71 1430.62 609.39 1429.74 609.91 1428.57C610.42 1427.41 610.68 1425.94 610.68 1424.19C610.68 1422.53 610.42 1421.12 609.91 1419.93C609.39 1418.74 608.69 1417.83 607.82 1417.2C606.94 1416.57 605.99 1416.26 604.94 1416.26C603.86 1416.26 602.89 1416.59 602.03 1417.23C601.18 1417.87 600.51 1418.8 600.04 1420C599.58 1421.21 599.34 1422.59 599.34 1424.19Z" />
					<path id="&lt;Compound Path&gt;" fill-rule="evenodd" class="shp0" d="M644.78 1424.24C644.78 1426.07 644.5 1427.78 643.96 1429.34C643.41 1430.89 642.61 1432.23 641.57 1433.35C640.52 1434.47 639.27 1435.31 637.83 1435.92C636.38 1436.52 634.74 1436.82 632.93 1436.82C631.14 1436.82 629.52 1436.52 628.09 1435.91C626.66 1435.31 625.41 1434.44 624.36 1433.31C623.31 1432.18 622.52 1430.86 621.97 1429.33C621.42 1427.78 621.15 1426.1 621.15 1424.23C621.15 1422.35 621.43 1420.64 621.98 1419.09C622.53 1417.52 623.31 1416.2 624.34 1415.09C625.38 1413.98 626.62 1413.13 628.09 1412.54C629.56 1411.94 631.17 1411.64 632.93 1411.64C634.73 1411.64 636.37 1411.94 637.83 1412.55C639.29 1413.15 640.54 1414.02 641.58 1415.14C642.63 1416.26 643.42 1417.59 643.96 1419.14C644.51 1420.68 644.78 1422.38 644.78 1424.24ZM638.83 1424.24C638.83 1421.72 638.29 1419.75 637.23 1418.34C636.16 1416.95 634.73 1416.23 632.93 1416.23C631.77 1416.23 630.75 1416.55 629.87 1417.18C628.99 1417.81 628.31 1418.74 627.83 1419.96C627.35 1421.18 627.11 1422.6 627.11 1424.24C627.11 1425.86 627.35 1427.27 627.81 1428.47C628.28 1429.68 628.96 1430.61 629.84 1431.26C630.71 1431.9 631.75 1432.21 632.93 1432.21C634.73 1432.21 636.16 1431.51 637.23 1430.1C638.29 1428.69 638.83 1426.73 638.83 1424.24Z" />
					<path id="&lt;Compound Path&gt;" class="shp0" d="M669.84 1419.12C669.4 1420.17 669.19 1422.02 669.19 1424.68L669.19 1432.91C669.19 1434.2 668.91 1435.19 668.34 1435.84C667.77 1436.49 667.02 1436.82 666.09 1436.82C665.2 1436.82 664.48 1436.49 663.92 1435.84C663.36 1435.19 663.09 1434.2 663.09 1432.91L663.09 1423.03C663.09 1421.48 663.03 1420.27 662.93 1419.4C662.83 1418.54 662.55 1417.83 662.1 1417.28C661.66 1416.72 660.95 1416.45 659.98 1416.45C658.04 1416.45 656.76 1417.14 656.14 1418.54C655.52 1419.93 655.23 1421.93 655.23 1424.53L655.23 1432.91C655.23 1434.2 654.94 1435.17 654.39 1435.82C653.83 1436.49 653.09 1436.82 652.19 1436.82C651.29 1436.82 650.54 1436.49 649.97 1435.82C649.4 1435.17 649.12 1434.2 649.12 1432.91L649.12 1415.19C649.12 1414.02 649.37 1413.13 649.88 1412.53C650.4 1411.93 651.08 1411.62 651.92 1411.62C652.73 1411.62 653.41 1411.9 653.95 1412.47C654.49 1413.04 654.77 1413.81 654.77 1414.82L654.77 1415.41C655.79 1414.12 656.9 1413.17 658.07 1412.57C659.24 1411.97 660.56 1411.66 661.98 1411.66C663.47 1411.66 664.75 1411.98 665.82 1412.6C666.9 1413.21 667.77 1414.15 668.47 1415.41C669.47 1414.15 670.54 1413.19 671.69 1412.58C672.83 1411.97 674.1 1411.66 675.49 1411.66C677.12 1411.66 678.51 1411.99 679.68 1412.67C680.86 1413.33 681.73 1414.28 682.31 1415.52C682.82 1416.64 683.07 1418.4 683.07 1420.81L683.07 1432.91C683.07 1434.2 682.79 1435.19 682.24 1435.84C681.66 1436.49 680.92 1436.82 679.99 1436.82C679.09 1436.82 678.36 1436.49 677.79 1435.82C677.21 1435.17 676.92 1434.2 676.92 1432.91L676.92 1422.49C676.92 1421.15 676.87 1420.09 676.76 1419.29C676.65 1418.48 676.36 1417.81 675.88 1417.27C675.4 1416.72 674.67 1416.45 673.71 1416.45C672.93 1416.45 672.18 1416.69 671.49 1417.16C670.77 1417.66 670.24 1418.31 669.84 1419.12Z" />
					<path id="&lt;Compound Path&gt;" fill-rule="evenodd" class="shp0" d="M703.83 1433.33C702.39 1434.49 701.01 1435.36 699.67 1435.94C698.33 1436.53 696.82 1436.82 695.16 1436.82C693.63 1436.82 692.31 1436.5 691.15 1435.88C689.99 1435.25 689.11 1434.4 688.48 1433.31C687.87 1432.24 687.55 1431.08 687.55 1429.83C687.55 1428.13 688.07 1426.69 689.1 1425.49C690.12 1424.31 691.53 1423.5 693.33 1423.09C693.71 1423 694.65 1422.8 696.13 1422.49C697.64 1422.16 698.9 1421.87 699.98 1421.61C701.04 1421.35 702.2 1421.03 703.45 1420.65C703.37 1419.01 703.06 1417.81 702.5 1417.03C701.94 1416.28 700.77 1415.9 699.03 1415.9C697.52 1415.9 696.39 1416.12 695.62 1416.56C694.86 1416.99 694.21 1417.66 693.67 1418.54C693.12 1419.41 692.74 1420 692.52 1420.27C692.29 1420.56 691.8 1420.68 691.08 1420.68C690.4 1420.68 689.83 1420.46 689.35 1420.03C688.86 1419.57 688.62 1419.01 688.62 1418.31C688.62 1417.22 688.99 1416.15 689.72 1415.14C690.46 1414.1 691.62 1413.26 693.18 1412.58C694.74 1411.92 696.7 1411.59 699.03 1411.59C701.63 1411.59 703.69 1411.92 705.19 1412.56C706.68 1413.19 707.72 1414.2 708.34 1415.61C708.96 1416.99 709.27 1418.84 709.27 1421.14C709.27 1422.59 709.27 1423.83 709.26 1424.84C709.25 1425.86 709.24 1426.98 709.23 1428.22C709.23 1429.38 709.41 1430.6 709.78 1431.86C710.14 1433.12 710.33 1433.94 710.33 1434.29C710.33 1434.93 710.04 1435.51 709.47 1436.03C708.91 1436.55 708.25 1436.82 707.53 1436.82C706.92 1436.82 706.33 1436.52 705.72 1435.92C705.13 1435.32 704.5 1434.45 703.83 1433.33ZM703.45 1424.36C702.57 1424.7 701.31 1425.04 699.65 1425.42C697.99 1425.79 696.84 1426.05 696.2 1426.23C695.56 1426.41 694.95 1426.75 694.38 1427.25C693.8 1427.77 693.5 1428.47 693.5 1429.38C693.5 1430.33 693.85 1431.12 694.52 1431.78C695.21 1432.44 696.1 1432.77 697.2 1432.77C698.38 1432.77 699.46 1432.49 700.45 1431.96C701.45 1431.42 702.18 1430.72 702.63 1429.88C703.17 1428.94 703.45 1427.41 703.45 1425.24L703.45 1424.36Z" />
					<path id="&lt;Compound Path&gt;" class="shp0" d="M718.3 1408.75C717.48 1408.75 716.78 1408.49 716.19 1407.95C715.6 1407.42 715.3 1406.66 715.3 1405.69C715.3 1404.82 715.6 1404.11 716.21 1403.53C716.8 1402.96 717.51 1402.69 718.3 1402.69C719.07 1402.69 719.76 1402.94 720.35 1403.45C720.94 1403.97 721.23 1404.72 721.23 1405.69C721.23 1406.65 720.95 1407.4 720.36 1407.93C719.78 1408.46 719.09 1408.75 718.3 1408.75ZM721.23 1415.16L721.23 1433.04C721.23 1434.29 720.95 1435.23 720.39 1435.87C719.82 1436.49 719.11 1436.82 718.24 1436.82C717.37 1436.82 716.66 1436.49 716.12 1435.84C715.57 1435.19 715.3 1434.26 715.3 1433.04L715.3 1415.33C715.3 1414.12 715.57 1413.19 716.12 1412.57C716.66 1411.95 717.37 1411.64 718.24 1411.64C719.11 1411.64 719.82 1411.95 720.39 1412.57C720.95 1413.19 721.23 1414.05 721.23 1415.16Z" />
				</g>
				<g id="&lt;Group&gt;">
					<path id="&lt;Compound Path&gt;" class="shp0" d="M732.76 1415.07L732.76 1415.8C733.8 1414.37 734.94 1413.32 736.17 1412.65C737.41 1411.98 738.83 1411.64 740.45 1411.64C742.01 1411.64 743.41 1411.99 744.65 1412.71C745.87 1413.42 746.8 1414.42 747.4 1415.71C747.8 1416.47 748.04 1417.3 748.17 1418.17C748.27 1419.04 748.34 1420.16 748.34 1421.53L748.34 1433.04C748.34 1434.29 748.06 1435.23 747.52 1435.87C746.98 1436.49 746.27 1436.82 745.4 1436.82C744.52 1436.82 743.8 1436.49 743.27 1435.84C742.71 1435.19 742.43 1434.26 742.43 1433.04L742.43 1422.73C742.43 1420.68 742.17 1419.12 741.62 1418.04C741.07 1416.96 739.98 1416.42 738.36 1416.42C737.3 1416.42 736.34 1416.75 735.47 1417.41C734.61 1418.06 733.97 1418.97 733.56 1420.12C733.27 1421.04 733.12 1422.76 733.12 1425.3L733.12 1433.04C733.12 1434.3 732.85 1435.25 732.29 1435.88C731.73 1436.5 731.01 1436.82 730.13 1436.82C729.28 1436.82 728.57 1436.49 728.02 1435.84C727.46 1435.19 727.19 1434.26 727.19 1433.04L727.19 1415.16C727.19 1413.97 727.43 1413.1 727.94 1412.51C728.42 1411.93 729.11 1411.64 729.96 1411.64C730.47 1411.64 730.95 1411.78 731.36 1412.02C731.79 1412.28 732.12 1412.67 732.37 1413.17C732.62 1413.7 732.76 1414.32 732.76 1415.07Z" />
					<path id="&lt;Compound Path&gt;" class="shp0" d="M757.86 1415.49L762.66 1429.55L767.83 1414.88C768.24 1413.7 768.64 1412.87 769.03 1412.38C769.43 1411.89 770.02 1411.64 770.81 1411.64C771.56 1411.64 772.2 1411.9 772.75 1412.44C773.26 1412.96 773.53 1413.57 773.53 1414.28C773.53 1414.55 773.48 1414.86 773.38 1415.21C773.3 1415.59 773.19 1415.93 773.06 1416.25C772.94 1416.56 772.81 1416.93 772.64 1417.33L766.94 1432.08C766.78 1432.49 766.57 1433.04 766.33 1433.69C766.07 1434.34 765.78 1434.88 765.48 1435.36C765.16 1435.82 764.78 1436.17 764.33 1436.43C763.86 1436.68 763.31 1436.82 762.66 1436.82C761.81 1436.82 761.15 1436.62 760.64 1436.22C760.14 1435.82 759.77 1435.38 759.54 1434.9C759.3 1434.43 758.89 1433.48 758.33 1432.08L752.67 1417.49C752.54 1417.13 752.4 1416.77 752.26 1416.4C752.13 1416.04 752.03 1415.68 751.92 1415.29C751.83 1414.91 751.78 1414.58 751.78 1414.32C751.78 1413.89 751.9 1413.47 752.16 1413.06C752.4 1412.64 752.74 1412.29 753.17 1412.04C753.62 1411.78 754.08 1411.64 754.59 1411.64C755.57 1411.64 756.25 1411.93 756.62 1412.53C757 1413.12 757.41 1414.1 757.86 1415.49Z" />
				</g>
				<g id="&lt;Group&gt;">
					<path id="&lt;Compound Path&gt;" fill-rule="evenodd" class="shp0" d="M793.74 1425.74L782.13 1425.74C782.13 1427.15 782.42 1428.39 782.94 1429.47C783.48 1430.53 784.17 1431.35 785.05 1431.9C785.93 1432.44 786.9 1432.71 787.96 1432.71C788.67 1432.71 789.32 1432.62 789.9 1432.45C790.48 1432.27 791.06 1432 791.62 1431.64C792.16 1431.26 792.66 1430.88 793.13 1430.44C793.58 1430.02 794.21 1429.45 794.93 1428.72C795.24 1428.43 795.68 1428.31 796.24 1428.31C796.85 1428.31 797.34 1428.47 797.72 1428.83C798.1 1429.18 798.27 1429.67 798.27 1430.3C798.27 1430.86 798.07 1431.52 797.64 1432.27C797.23 1433.01 796.61 1433.73 795.74 1434.43C794.89 1435.11 793.83 1435.67 792.55 1436.14C791.27 1436.59 789.8 1436.82 788.12 1436.82C784.32 1436.82 781.35 1435.67 779.24 1433.42C777.13 1431.13 776.08 1428.07 776.08 1424.19C776.08 1422.34 776.35 1420.65 776.86 1419.09C777.38 1417.52 778.13 1416.18 779.13 1415.07C780.14 1413.94 781.36 1413.08 782.83 1412.49C784.3 1411.89 785.91 1411.59 787.7 1411.59C790.01 1411.59 792 1412.1 793.66 1413.13C795.32 1414.15 796.56 1415.46 797.39 1417.07C798.22 1418.7 798.63 1420.34 798.63 1422.03C798.63 1423.58 798.21 1424.59 797.35 1425.04C796.49 1425.51 795.29 1425.74 793.74 1425.74ZM782.13 1422.22L792.89 1422.22C792.75 1420.11 792.21 1418.52 791.25 1417.48C790.3 1416.43 789.05 1415.9 787.49 1415.9C786.03 1415.9 784.81 1416.44 783.86 1417.5C782.91 1418.56 782.35 1420.14 782.13 1422.22Z" />
					<path id="&lt;Compound Path&gt;" class="shp0" d="M824.92 1429.15C824.92 1429.91 824.7 1430.74 824.25 1431.62C823.8 1432.49 823.14 1433.33 822.23 1434.12C821.33 1434.91 820.17 1435.55 818.79 1436.03C817.43 1436.53 815.87 1436.77 814.16 1436.77C810.48 1436.77 807.62 1435.65 805.56 1433.42C803.51 1431.19 802.48 1428.21 802.48 1424.45C802.48 1421.91 802.94 1419.66 803.89 1417.71C804.84 1415.77 806.19 1414.25 807.97 1413.19C809.75 1412.12 811.89 1411.59 814.37 1411.59C815.91 1411.59 817.31 1411.83 818.6 1412.29C819.88 1412.76 820.96 1413.37 821.86 1414.1C822.75 1414.85 823.43 1415.64 823.9 1416.47C824.37 1417.31 824.61 1418.1 824.61 1418.82C824.61 1419.56 824.35 1420.18 823.8 1420.7C823.28 1421.22 822.64 1421.48 821.89 1421.48C821.39 1421.48 820.99 1421.33 820.67 1421.07C820.33 1420.81 819.97 1420.4 819.56 1419.79C818.83 1418.65 818.08 1417.78 817.29 1417.2C816.5 1416.63 815.5 1416.33 814.28 1416.33C812.53 1416.33 811.12 1417.06 810.05 1418.48C808.96 1419.92 808.43 1421.87 808.43 1424.36C808.43 1425.51 808.58 1426.6 808.84 1427.57C809.12 1428.54 809.52 1429.37 810.05 1430.07C810.56 1430.75 811.2 1431.27 811.94 1431.63C812.67 1431.99 813.48 1432.16 814.37 1432.16C815.56 1432.16 816.58 1431.88 817.43 1431.3C818.27 1430.72 819.03 1429.85 819.68 1428.68C820.04 1427.97 820.43 1427.43 820.85 1427.03C821.27 1426.63 821.78 1426.45 822.39 1426.45C823.11 1426.45 823.72 1426.73 824.18 1427.3C824.67 1427.89 824.92 1428.49 824.92 1429.15Z" />
					<path id="&lt;Compound Path&gt;" class="shp0" d="M830.42 1412.16L831.08 1412.16L831.08 1408.44C831.08 1407.45 831.1 1406.65 831.16 1406.09C831.21 1405.52 831.34 1405.05 831.58 1404.63C831.81 1404.21 832.14 1403.87 832.58 1403.6C833.01 1403.34 833.5 1403.21 834.03 1403.21C834.78 1403.21 835.47 1403.5 836.07 1404.09C836.47 1404.49 836.74 1404.96 836.84 1405.52C836.96 1406.09 837 1406.91 837 1407.95L837 1412.16L839.18 1412.16C840.03 1412.16 840.67 1412.37 841.11 1412.79C841.56 1413.2 841.77 1413.73 841.77 1414.38C841.77 1415.21 841.46 1415.8 840.82 1416.13C840.2 1416.46 839.29 1416.63 838.12 1416.63L837 1416.63L837 1428.03C837 1429 837.04 1429.75 837.1 1430.28C837.18 1430.8 837.36 1431.23 837.64 1431.54C837.91 1431.87 838.37 1432.04 839.01 1432.04C839.36 1432.04 839.83 1431.98 840.43 1431.84C841.01 1431.71 841.48 1431.65 841.82 1431.65C842.29 1431.65 842.74 1431.86 843.11 1432.24C843.49 1432.65 843.68 1433.14 843.68 1433.73C843.68 1434.73 843.17 1435.49 842.12 1436.02C841.07 1436.55 839.57 1436.82 837.63 1436.82C835.77 1436.82 834.36 1436.49 833.4 1435.84C832.45 1435.19 831.82 1434.29 831.53 1433.13C831.22 1431.98 831.08 1430.45 831.08 1428.53L831.08 1416.63L830.29 1416.63C829.45 1416.63 828.8 1416.42 828.34 1415.99C827.89 1415.57 827.67 1415.04 827.67 1414.38C827.67 1413.73 827.9 1413.2 828.37 1412.79C828.85 1412.37 829.53 1412.16 830.42 1412.16Z" />
					<path id="&lt;Compound Path&gt;" fill-rule="evenodd" class="shp0" d="M868.06 1424.24C868.06 1426.07 867.79 1427.78 867.23 1429.34C866.69 1430.89 865.88 1432.23 864.85 1433.35C863.8 1434.47 862.55 1435.31 861.11 1435.92C859.65 1436.52 858.03 1436.82 856.21 1436.82C854.41 1436.82 852.79 1436.52 851.36 1435.91C849.93 1435.31 848.69 1434.44 847.64 1433.31C846.59 1432.18 845.79 1430.86 845.25 1429.33C844.71 1427.78 844.45 1426.1 844.45 1424.23C844.45 1422.35 844.71 1420.64 845.25 1419.09C845.82 1417.52 846.6 1416.2 847.63 1415.09C848.66 1413.98 849.9 1413.13 851.36 1412.54C852.84 1411.94 854.45 1411.64 856.21 1411.64C858.02 1411.64 859.64 1411.94 861.11 1412.55C862.57 1413.15 863.82 1414.02 864.86 1415.14C865.9 1416.26 866.71 1417.59 867.25 1419.14C867.79 1420.68 868.06 1422.38 868.06 1424.24ZM862.11 1424.24C862.11 1421.72 861.57 1419.75 860.51 1418.34C859.43 1416.95 858.02 1416.23 856.21 1416.23C855.05 1416.23 854.03 1416.55 853.15 1417.18C852.26 1417.81 851.58 1418.74 851.11 1419.96C850.63 1421.18 850.39 1422.6 850.39 1424.24C850.39 1425.86 850.63 1427.27 851.1 1428.47C851.57 1429.68 852.24 1430.61 853.12 1431.26C853.99 1431.9 855.02 1432.21 856.21 1432.21C858.02 1432.21 859.43 1431.51 860.51 1430.1C861.57 1428.69 862.11 1426.73 862.11 1424.24Z" />
				</g>
				<g id="&lt;Group&gt;">
					<path id="&lt;Compound Path&gt;" class="shp0" d="M878.63 1427.89L878.63 1433.04C878.63 1434.3 878.35 1435.25 877.78 1435.88C877.21 1436.5 876.5 1436.82 875.62 1436.82C874.78 1436.82 874.07 1436.49 873.52 1435.87C872.97 1435.23 872.7 1434.29 872.7 1433.04L872.7 1415.81C872.7 1413.02 873.66 1411.64 875.59 1411.64C876.56 1411.64 877.28 1411.97 877.72 1412.61C878.15 1413.26 878.38 1414.22 878.44 1415.49C879.14 1414.22 879.88 1413.26 880.63 1412.61C881.37 1411.97 882.36 1411.64 883.6 1411.64C884.86 1411.64 886.06 1411.97 887.24 1412.61C888.41 1413.26 889 1414.13 889 1415.2C889 1415.95 888.75 1416.59 888.25 1417.07C887.75 1417.56 887.21 1417.81 886.63 1417.81C886.41 1417.81 885.88 1417.67 885.05 1417.38C884.21 1417.11 883.48 1416.96 882.84 1416.96C881.98 1416.96 881.27 1417.2 880.72 1417.68C880.17 1418.17 879.74 1418.86 879.44 1419.8C879.13 1420.75 878.91 1421.86 878.8 1423.16C878.69 1424.44 878.63 1426.01 878.63 1427.89Z" />
				</g>
				<g id="&lt;Group&gt;">
					<path id="&lt;Compound Path&gt;" class="shp0" d="M910.24 1428.72C910.24 1430.44 909.84 1431.9 909.03 1433.12C908.23 1434.34 907.06 1435.25 905.5 1435.88C903.94 1436.5 902.05 1436.82 899.81 1436.82C897.69 1436.82 895.86 1436.48 894.33 1435.79C892.81 1435.11 891.68 1434.27 890.97 1433.25C890.23 1432.23 889.86 1431.21 889.86 1430.18C889.86 1429.5 890.1 1428.92 890.57 1428.43C891.03 1427.94 891.63 1427.71 892.33 1427.71C892.95 1427.71 893.44 1427.87 893.77 1428.18C894.1 1428.52 894.41 1428.95 894.73 1429.53C895.33 1430.63 896.06 1431.46 896.92 1432C897.75 1432.55 898.91 1432.82 900.39 1432.82C901.57 1432.82 902.54 1432.54 903.31 1431.99C904.06 1431.44 904.46 1430.81 904.46 1430.1C904.46 1429 904.05 1428.21 903.27 1427.71C902.47 1427.2 901.18 1426.73 899.36 1426.28C897.32 1425.75 895.65 1425.19 894.37 1424.61C893.09 1424.03 892.05 1423.25 891.29 1422.3C890.52 1421.36 890.13 1420.18 890.13 1418.79C890.13 1417.54 890.49 1416.37 891.2 1415.28C891.91 1414.17 892.97 1413.29 894.35 1412.63C895.73 1411.97 897.4 1411.64 899.36 1411.64C900.89 1411.64 902.27 1411.81 903.5 1412.14C904.72 1412.47 905.76 1412.92 906.57 1413.47C907.38 1414.04 908.01 1414.66 908.44 1415.33C908.87 1416.02 909.08 1416.69 909.08 1417.33C909.08 1418.04 908.86 1418.61 908.4 1419.09C907.94 1419.52 907.28 1419.75 906.46 1419.75C905.84 1419.75 905.32 1419.57 904.89 1419.2C904.47 1418.84 903.97 1418.31 903.43 1417.59C902.98 1416.98 902.45 1416.49 901.84 1416.13C901.23 1415.77 900.4 1415.59 899.36 1415.59C898.29 1415.59 897.39 1415.82 896.69 1416.3C895.98 1416.78 895.62 1417.37 895.62 1418.09C895.62 1418.74 895.88 1419.27 896.4 1419.69C896.93 1420.1 897.62 1420.45 898.51 1420.72C899.4 1420.99 900.61 1421.33 902.17 1421.72C904.01 1422.19 905.51 1422.74 906.68 1423.4C907.84 1424.04 908.73 1424.81 909.33 1425.7C909.94 1426.59 910.24 1427.6 910.24 1428.72Z" />
				</g>
				<g id="&lt;Group&gt;">
					<path id="&lt;Compound Path&gt;" class="shp0" d="M916.98 1436.82C916.08 1436.82 915.3 1436.52 914.66 1435.91C913.99 1435.31 913.67 1434.45 913.67 1433.38C913.67 1432.45 913.98 1431.66 914.59 1430.99C915.22 1430.33 915.99 1430 916.91 1430C917.81 1430 918.6 1430.33 919.23 1430.99C919.88 1431.64 920.21 1432.44 920.21 1433.38C920.21 1434.45 919.88 1435.29 919.23 1435.9C918.6 1436.51 917.84 1436.82 916.98 1436.82Z" />
					<path id="&lt;Compound Path&gt;" fill-rule="evenodd" class="shp0" d="M949.18 1424.24C949.18 1426.07 948.9 1427.78 948.34 1429.34C947.79 1430.89 947 1432.23 945.96 1433.35C944.91 1434.47 943.67 1435.31 942.22 1435.92C940.77 1436.52 939.15 1436.82 937.33 1436.82C935.53 1436.82 933.92 1436.52 932.48 1435.91C931.05 1435.31 929.81 1434.44 928.76 1433.31C927.7 1432.18 926.91 1430.86 926.35 1429.33C925.82 1427.78 925.55 1426.1 925.55 1424.23C925.55 1422.35 925.82 1420.64 926.38 1419.09C926.94 1417.52 927.71 1416.2 928.74 1415.09C929.77 1413.98 931.02 1413.13 932.48 1412.54C933.95 1411.94 935.55 1411.64 937.33 1411.64C939.12 1411.64 940.75 1411.94 942.22 1412.55C943.69 1413.15 944.94 1414.02 945.98 1415.14C947.02 1416.26 947.81 1417.59 948.36 1419.14C948.9 1420.68 949.18 1422.38 949.18 1424.24ZM943.21 1424.24C943.21 1421.72 942.68 1419.75 941.62 1418.34C940.55 1416.95 939.12 1416.23 937.33 1416.23C936.17 1416.23 935.16 1416.55 934.27 1417.18C933.38 1417.81 932.7 1418.74 932.23 1419.96C931.75 1421.18 931.51 1422.6 931.51 1424.24C931.51 1425.86 931.74 1427.27 932.21 1428.47C932.69 1429.68 933.36 1430.61 934.24 1431.26C935.11 1431.9 936.14 1432.21 937.33 1432.21C939.12 1432.21 940.55 1431.51 941.62 1430.1C942.68 1428.69 943.21 1426.73 943.21 1424.24Z" />
				</g>
				<g id="&lt;Group&gt;">
					<path id="&lt;Compound Path&gt;" class="shp0" d="M959.74 1427.89L959.74 1433.04C959.74 1434.3 959.46 1435.25 958.9 1435.88C958.34 1436.5 957.61 1436.82 956.75 1436.82C955.89 1436.82 955.19 1436.49 954.64 1435.87C954.08 1435.23 953.81 1434.29 953.81 1433.04L953.81 1415.81C953.81 1413.02 954.78 1411.64 956.7 1411.64C957.69 1411.64 958.39 1411.97 958.83 1412.61C959.25 1413.26 959.51 1414.22 959.56 1415.49C960.26 1414.22 960.98 1413.26 961.73 1412.61C962.48 1411.97 963.48 1411.64 964.71 1411.64C965.98 1411.64 967.19 1411.97 968.35 1412.61C969.52 1413.26 970.12 1414.13 970.12 1415.2C970.12 1415.95 969.86 1416.59 969.37 1417.07C968.86 1417.56 968.33 1417.81 967.74 1417.81C967.53 1417.81 967.01 1417.67 966.17 1417.38C965.34 1417.11 964.6 1416.96 963.96 1416.96C963.09 1416.96 962.39 1417.2 961.82 1417.68C961.28 1418.17 960.85 1418.86 960.54 1419.8C960.25 1420.75 960.03 1421.86 959.92 1423.16C959.81 1424.44 959.74 1426.01 959.74 1427.89Z" />
				</g>
				<g id="&lt;Group&gt;">
					<path id="&lt;Compound Path&gt;" fill-rule="evenodd" class="shp0" d="M994.08 1416.17L994.08 1434.17C994.08 1436.23 993.85 1438 993.44 1439.47C993.02 1440.96 992.35 1442.19 991.42 1443.15C990.49 1444.12 989.27 1444.83 987.78 1445.3C986.28 1445.76 984.41 1446 982.19 1446C980.14 1446 978.31 1445.71 976.71 1445.12C975.1 1444.5 973.85 1443.74 972.99 1442.79C972.12 1441.85 971.68 1440.88 971.68 1439.87C971.68 1439.12 971.92 1438.51 972.43 1438.03C972.91 1437.54 973.51 1437.31 974.2 1437.31C975.08 1437.31 975.83 1437.71 976.49 1438.51C976.81 1438.93 977.14 1439.34 977.47 1439.75C977.81 1440.17 978.19 1440.53 978.6 1440.82C979.02 1441.12 979.52 1441.34 980.1 1441.48C980.67 1441.63 981.34 1441.7 982.1 1441.7C983.62 1441.7 984.83 1441.47 985.67 1441.03C986.52 1440.58 987.12 1439.96 987.46 1439.16C987.79 1438.36 988 1437.5 988.04 1436.59C988.11 1435.66 988.15 1434.2 988.19 1432.16C987.28 1433.49 986.21 1434.51 985.02 1435.2C983.83 1435.9 982.4 1436.24 980.76 1436.24C978.76 1436.24 977.02 1435.72 975.55 1434.65C974.06 1433.6 972.91 1432.12 972.12 1430.21C971.33 1428.31 970.92 1426.11 970.92 1423.61C970.92 1421.74 971.16 1420.06 971.66 1418.56C972.13 1417.07 972.82 1415.8 973.73 1414.78C974.62 1413.75 975.66 1412.97 976.84 1412.45C978.02 1411.93 979.29 1411.66 980.71 1411.66C982.38 1411.66 983.84 1412.01 985.07 1412.68C986.32 1413.35 987.45 1414.42 988.51 1415.84L988.51 1415.01C988.51 1413.93 988.77 1413.11 989.27 1412.5C989.77 1411.92 990.43 1411.62 991.22 1411.62C992.37 1411.62 993.13 1412.01 993.51 1412.79C993.88 1413.57 994.08 1414.7 994.08 1416.17ZM976.88 1424.02C976.88 1426.53 977.4 1428.43 978.46 1429.72C979.5 1431 980.87 1431.65 982.53 1431.65C983.5 1431.65 984.45 1431.36 985.32 1430.81C986.2 1430.26 986.91 1429.43 987.46 1428.32C988.02 1427.2 988.29 1425.86 988.29 1424.27C988.29 1421.75 987.75 1419.79 986.69 1418.38C985.63 1416.96 984.22 1416.26 982.49 1416.26C980.8 1416.26 979.43 1416.95 978.42 1418.28C977.39 1419.63 976.88 1421.54 976.88 1424.02Z" />
				</g>
			</g>
			<g id="&lt;Group&gt;">
				<g id="&lt;Group&gt;">
					<path id="&lt;Compound Path&gt;" fill-rule="evenodd" class="shp0" d="M693.31 1350.32C693.31 1340.29 696.7 1331.74 703.49 1324.63C710.29 1317.54 718.49 1313.99 728.1 1313.99C737.68 1313.99 745.87 1317.54 752.67 1324.63C759.47 1331.74 762.87 1340.29 762.87 1350.32C762.87 1360.35 759.47 1368.91 752.67 1376.01C745.87 1383.11 737.68 1386.66 728.1 1386.66C718.49 1386.66 710.29 1383.11 703.49 1376.01C696.7 1368.91 693.31 1360.35 693.31 1350.32ZM702.25 1350.32C702.25 1358.19 704.75 1364.86 709.74 1370.29C714.73 1375.73 720.84 1378.44 728.1 1378.44C735.32 1378.44 741.44 1375.73 746.42 1370.29C751.42 1364.86 753.9 1358.19 753.9 1350.32C753.9 1342.44 751.42 1335.78 746.42 1330.35C741.44 1324.9 735.32 1322.19 728.1 1322.19C720.84 1322.19 714.73 1324.9 709.74 1330.35C704.75 1335.78 702.25 1342.44 702.25 1350.32ZM736.9 1355.87L745.7 1355.87C745.08 1360.61 743.13 1364.32 739.9 1366.98C736.91 1369.59 733.28 1370.88 729.05 1370.88C723.3 1370.88 718.71 1368.86 715.29 1364.83C712.04 1361 710.42 1356.05 710.42 1350.01C710.42 1343.81 712.03 1338.86 715.24 1335.11C718.45 1331.37 722.99 1329.5 728.85 1329.5C733.21 1329.5 736.91 1330.68 739.9 1333.02C743.07 1335.55 745.01 1339.1 745.7 1343.66L736.9 1343.66C736.14 1339.68 733.71 1337.71 729.58 1337.71C722.78 1337.71 719.38 1341.74 719.38 1349.8C719.38 1353.58 720.25 1356.66 722 1359.07C723.75 1361.48 726.22 1362.69 729.4 1362.69C734.14 1362.69 736.64 1360.41 736.9 1355.87Z" />
				</g>
				<path id="&lt;Path&gt;" class="shp0" d="M744.69 1325.21L749.76 1329.5L712.46 1377.4L707.38 1373.1L744.69 1325.21Z" />
			</g>
		</g>
		<g id="&lt;Group&gt;">
			<g id="&lt;Group&gt;">
				<path id="&lt;Path&gt;" class="shp1" d="M0.05 1047.69C0.05 1038.53 320.04 1031.06 712.37 1031.06C1104.71 1031.06 1424.69 1038.53 1424.69 1047.69C1424.69 1056.84 1104.71 1064.31 712.37 1064.31C320.04 1064.31 0.05 1056.84 0.05 1047.69Z" />
				<path id="&lt;Path&gt;" class="shp2" d="M834.56 169.54C1152.86 169.54 1383.8 427.57 1350.37 745.88C1339.7 847.48 1303.35 942.92 1248.49 1025.81L240.77 1025.81C203.33 942.92 187.03 847.48 197.7 745.88C231.13 427.57 516.26 169.54 834.56 169.54Z" />
				<path id="&lt;Path&gt;" class="shp3" d="M754.64 436.5L1456.14 436.5L1308.17 1005.73L618.24 1005.72C605.39 1006.03 593.03 998.26 585.34 988.38C576.07 976.47 573.01 961.43 577.43 946.92L726.02 459C730.1 445.59 740.08 436.04 754.64 436.5Z" />
				<path id="&lt;Path&gt;" class="shp4" d="M1446.34 444.08L1302.31 998.15L618.06 998.15L618.06 998.14C599.33 998.59 576.62 975.58 584.68 949.13L733.28 461.21C736.43 450.85 743.53 443.69 754.52 444.08L1446.34 444.08Z" />
				<path id="&lt;Path&gt;" class="shp5" d="M614.29 946.86L759.91 468.7L1396.34 468.7L1250.72 946.86L614.29 946.86Z" />
				<path id="&lt;Path&gt;" class="shp6" d="M653.48 924.35L727.86 672.39L788.03 688.51L1070.01 612.95L1132.67 649.13L1346.51 526.19L1225.25 924.35L653.48 924.35Z" />
				<path id="&lt;Path&gt;" class="shp7" d="M653.48 924.35L682.43 826.27L748.83 798.56L810.31 835.7L1028.47 755.01L1078.01 775.89L1287.99 718.34L1225.25 924.35L653.48 924.35Z" />
				<path id="&lt;Path&gt;" class="shp8" d="M129.77 987.46L872.2 987.46C911.76 987.46 897.48 1047.69 857.22 1047.69L114.78 1047.69C75.22 1047.69 89.51 987.46 129.77 987.46Z" />
				<path id="&lt;Path&gt;" class="shp1" d="M784.16 987.46L1294.2 987.46C1333.77 987.46 1319.48 1047.69 1279.22 1047.69L769.18 1047.69C729.62 1047.69 743.9 987.46 784.16 987.46Z" />
				<path id="&lt;Compound Path&gt;" class="shp9" d="M1236.28 1009.91L1279.12 1009.91C1289.18 1009.91 1285.54 1025.23 1275.3 1025.23L1232.47 1025.23C1222.41 1025.23 1226.04 1009.91 1236.28 1009.91ZM1162.68 1009.91L1205.51 1009.91C1215.57 1009.91 1211.94 1025.23 1201.7 1025.23L1158.87 1025.23C1148.81 1025.23 1152.44 1009.91 1162.68 1009.91Z" />
				<path id="&lt;Path&gt;" class="shp1" d="M1276.14 949.13L1424.73 461.21C1436.26 423.36 1489.72 454.57 1477.99 493.09L1329.39 981.01C1317.87 1018.85 1264.41 987.64 1276.14 949.13Z" />
				<path id="&lt;Compound Path&gt;" class="shp10" d="M867.56 491.41L1117.92 491.41C1127.48 491.41 1133.21 499.23 1130.65 508.8C1128.09 518.36 1118.17 526.19 1108.61 526.19L858.25 526.19C848.68 526.19 842.95 518.36 845.51 508.8C848.08 499.23 858 491.41 867.56 491.41ZM1171.94 491.41L1225.14 491.41C1234.7 491.41 1240.43 499.23 1237.87 508.8C1235.31 518.36 1225.39 526.19 1215.83 526.19L1162.63 526.19C1153.07 526.19 1147.34 518.36 1149.9 508.8C1152.46 499.23 1162.38 491.41 1171.94 491.41Z" />
				<g id="&lt;Group&gt;">
					<path id="&lt;Path&gt;" class="shp11" d="M421.22 575.78C523.72 575.78 606.82 681.42 606.82 811.73C606.82 942.05 523.72 1047.69 421.22 1047.69L356.17 1047.69C356.17 968.75 356.17 699.22 356.17 575.78L421.22 575.78Z" />
					<path id="&lt;Path&gt;" class="shp5" d="M170.56 811.73C170.56 681.78 253.94 575.78 356.17 575.78C458.39 575.78 541.77 681.78 541.77 811.73C541.77 941.7 458.39 1047.69 356.17 1047.69C253.94 1047.69 170.56 941.7 170.56 811.73Z" />
					<path id="&lt;Path&gt;" class="shp12" d="M223.27 811.73C223.27 718.68 282.97 642.79 356.17 642.79C429.36 642.79 489.06 718.68 489.06 811.73C489.06 904.78 429.36 980.68 356.17 980.68C282.97 980.68 223.27 904.78 223.27 811.73Z" />
					<path id="&lt;Path&gt;" class="shp6" d="M382.52 646.12C443.29 661.66 489.06 729.9 489.06 811.73C489.06 893.57 443.29 961.81 382.52 977.35C321.75 961.81 275.98 893.57 275.98 811.73C275.98 729.9 321.75 661.66 382.52 646.12Z" />
					<path id="&lt;Path&gt;" class="shp13" d="M560.25 917.67C548.68 913.23 545.64 893.09 553.47 872.69C561.3 852.29 577.03 839.36 588.61 843.8L671.13 875.48C682.71 879.92 685.75 900.06 677.92 920.46C670.09 940.86 654.36 953.79 642.78 949.34L560.25 917.67Z" />
					<path id="&lt;Path&gt;" class="shp11" d="M616.31 953.31C600.88 947.39 596.82 920.54 607.26 893.33C617.7 866.14 638.68 848.89 654.11 854.82L895.25 947.36C910.69 953.29 914.75 980.14 904.3 1007.34C893.87 1034.54 872.89 1051.79 857.45 1045.86L616.31 953.31Z" />
					<path id="&lt;Path&gt;" class="shp5" d="M895.25 947.36C910.69 953.29 914.75 980.14 904.3 1007.34C893.87 1034.54 872.89 1051.79 857.45 1045.86C842.02 1039.94 837.96 1013.09 848.4 985.89C858.84 958.69 879.82 941.44 895.25 947.36Z" />
					<path id="&lt;Path&gt;" class="shp3" d="M293.02 680.99C318.76 658.5 354.54 657.34 372.92 678.39C391.31 699.44 385.35 734.73 359.61 757.21C333.87 779.7 298.1 780.86 279.71 759.81C261.32 738.76 267.28 703.47 293.02 680.99Z" />
				</g>
			</g>
		</g>
	</g>
</svg>